<svg width="30" height="28" viewBox="0 0 30 28" fill="none" xmlns="http://www.w3.org/2000/svg">
<path d="M30 6V7C30 7.33333 29.8333 7.5 29.5 7.5H28V8.25C28 8.75 27.75 9 27.25 9H2.75C2.25 9 2 8.75 2 8.25V7.5H0.5C0.166667 7.5 0 7.33333 0 7V6C0 5.79167 0.104167 5.64583 0.3125 5.5625L14.8125 0.0625C14.8542 0.0208333 14.9167 0 15 0C15.0833 0 15.1458 0.0208333 15.1875 0.0625L29.6875 5.5625C29.8958 5.64583 30 5.79167 30 6ZM28.5 25C28.9167 25 29.2708 25.1458 29.5625 25.4375C29.8542 25.7292 30 26.0833 30 26.5V27.5C30 27.8333 29.8333 28 29.5 28H0.5C0.166667 28 0 27.8333 0 27.5V26.5C0 26.0833 0.145833 25.7292 0.4375 25.4375C0.729167 25.1458 1.08333 25 1.5 25H28.5ZM5 10H9V22H13V10H17V22H21V10H25V22H27.25C27.75 22 28 22.25 28 22.75V24H2V22.75C2 22.25 2.25 22 2.75 22H5V10Z" fill="#00A6B6"/>
</svg>
